<?xml version="1.0" encoding="utf-8"?>
<!-- Generator: Adobe Illustrator 21.0.2, SVG Export Plug-In . SVG Version: 6.00 Build 0)  -->
<svg version="1.1" id="Capa_1" xmlns="http://www.w3.org/2000/svg" xmlns:xlink="http://www.w3.org/1999/xlink" x="0px" y="0px"
	 viewBox="0 0 1445.9 3095.8" style="enable-background:new 0 0 1445.9 3095.8;" xml:space="preserve">
<style type="text/css">
	.st0{fill:#FAA29B;}
</style>
<g>
	<path class="st0" d="M1353.7,2658.2c12.4-48.7,14.8-92.4,7.3-133.5c-6.6-35.9-19.8-65-31.5-90.8c-1.4-3.1-2.8-6.3-4.2-9.3
		c-6.5-14.5-20.7-30-38.8-49.7c-26.7-29.1-59.8-65.3-87-117.6c-32.2-62-47.9-130.8-47.9-210.5c0-156,101.7-285.9,294.3-376v-12.1
		c-199.8,92.2-305.3,226.3-305.3,388.2c0,81.5,16.1,152,49.1,215.6c27.9,53.6,63,91.9,88.7,120c17.4,19,31.1,34,36.9,46.8
		c1.4,3.1,2.8,6.2,4.2,9.4c23.7,52.2,50.5,111.3,23.5,217c-12.7,50-25.4,125.3-13.1,200.6c13.1,80.4,53.4,141.7,115.9,180.6V3024
		C1302.4,2931,1333.5,2737.6,1353.7,2658.2z"/>
</g>
<path class="st0" d="M1445.9,968.8c-27.4-11.9-50.1-26.9-67.3-44.6c-17.1-17.5-29.1-37.9-35.6-60.5c-17.6-60.7,6.9-124.3,35.7-163.7
	c25.9-35.4,40.7-74.3,44-115.7c2.5-31.7-2-65.3-12.9-97.1c-8.7-25.1-29.9-46.7-52.3-69.5c-26.2-26.7-56-57-71.4-98.7
	c-13.6-36.9-16.9-75.3-9.6-114.2c6.8-36.4,22.4-71.7,46.4-104.8c25.4-34.9,68.8-65.1,123.1-85.7V2.6c-58.2,21.5-104.8,53.5-132.1,91
	c-24.9,34.4-41.2,71.2-48.3,109.2c-7.6,40.9-4.2,81.3,10.1,120c16.3,44,46.9,75.1,73.9,102.6c22.5,22.9,41.9,42.6,49.7,65.4
	c10.5,30.4,14.7,62.4,12.4,92.6c-3.1,39.3-17.2,76.3-41.9,110c-30.3,41.4-56.1,108.7-37.4,173.2c7,24.3,19.9,46.2,38.3,65.1
	c19.2,19.7,44.5,36.1,75.2,48.8V968.8z"/>
<path class="st0" d="M380.3,954.7c-24.3-44.7-49.5-90.9-66.6-150.9c-16.3-57.1-51.6-105.1-104.9-142.6
	C156.4,624.3,86.2,597.2,0,580.7v11.2c83.7,16.3,151.8,42.6,202.5,78.3c51.2,36.1,85.1,82,100.6,136.6
	c17.5,61.2,42.9,107.9,67.5,153.1c21.8,40,42.3,77.7,55.6,122.3c15,50.1,18.7,101.7,11.7,162.4c-4.5,39.6-16,78.5-34.1,115.5
	c-15.5,31.8-36.4,63.2-62.1,93.4c-47.1,55.4-101.5,96.7-141.2,126.9c-17.3,13.1-32.2,24.5-41.9,33.6c-2.2,2.1-4.5,4.3-6.9,6.4
	c-52.9,49.4-132.8,124-132.8,222.5c0,57.5,14.7,95.3,27.6,128.7c9.8,25.3,18.3,47.2,18.3,72.6c0,66.3-21.2,98.5-64.8,98.5v11
	c26.8,0,46.8-10.7,59.5-31.9c10.8-18.1,16.3-44.2,16.3-77.6c0-27.5-9.2-51.4-19-76.6c-12.6-32.5-26.9-69.3-26.9-124.7
	c0-41.2,14.6-81.6,44.6-123.5c25.8-36,58.5-66.5,84.7-91c2.4-2.2,4.7-4.4,6.9-6.5c9.3-8.8,24-19.9,41.1-32.9
	c40.1-30.5,95-72.3,143-128.6c26.3-30.9,47.7-63.1,63.6-95.7c18.6-38.2,30.5-78.2,35.2-119.1C464.6,1109.5,423.7,1034.3,380.3,954.7
	z"/>
</svg>
